<?xml version="1.0" encoding="utf-8"?>
<!-- Generator: Adobe Illustrator 21.1.0, SVG Export Plug-In . SVG Version: 6.00 Build 0)  -->
<svg version="1.1" id="Layer_1" xmlns="http://www.w3.org/2000/svg" xmlns:xlink="http://www.w3.org/1999/xlink" x="0px" y="0px"
	 viewBox="0 0 285 181.2" style="enable-background:new 0 0 285 181.2;" xml:space="preserve">
<style type="text/css">
	.st0{fill:#C41230;}
</style>
<polygon class="st0" points="219.1,48 219.1,21.1 206.7,21.1 206.7,23 210.2,23 210.2,48 205.7,48 205.7,49.7 223.6,49.7 223.6,48 
	"/>
<path class="st0" d="M42.5,3.8h-1.6c-0.1,1.4-0.8,2-2.2,2C36,5.8,32,2.4,27.2,2.4c-13.5,0-21.6,13.3-21.6,25
	c0,11.8,7.8,23.4,20.8,23.4c7.9,0,10.8-3.7,12.9-3.7c1.4,0,1.6,1.2,1.6,2.7h1.8V33.6h-1.8l-0.4,2.2c-0.9,5.3-5.1,13.2-13.5,13.2
	c-7.5,0-10.4-6.5-10.4-22.4c0-16.8,3.9-22.4,10.6-22.4c7.5,0,12.6,8.4,13.7,15.1h1.6V3.8z"/>
<path class="st0" d="M65.6,42c-0.1,3.4-2.1,6.3-5.1,6.3c-4.4,0-4.6-3.7-4.6-6.6c0-3.4,0.4-5.7,4.6-6.2l5.1-0.5V42z M77.4,44.2
	c0,1.7-1.1,3.6-1.8,3.6c-1.2,0-1.4-1.2-1.4-3.2V29.7c0-7.4-6.9-9.2-13.6-9.2c-6.5,0-11.2,3.2-11.2,6.8c0,2.3,1.3,4.2,4.2,4.2
	c2.5,0,4-1.6,4-3.9c0-3.3-3.4-3.3-3.4-3.4c0-1.5,3.8-1.9,6-1.9c4.9,0,5.5,1.8,5.5,5.7v5.4l-6.4,0.5c-5.9,0.5-12.3,2-12.3,8.8
	c0,5.6,5.1,7.9,10,7.9c2.5,0,7-1,8.7-4.1c1.2,2.7,3.6,4.1,6.5,4.1c4.2,0,6.9-2.5,6.9-6.3H77.4z"/>
<path class="st0" d="M57.8,62.3l0-1.8H43L32.3,91.2L21.9,60.4H5.6v1.9H10v37c0,2.8-0.7,4.9-4.4,4.9v1.8h11.2v-1.8h-0.2
	c-3.5,0-4.9-0.3-4.9-5.5V62h0.1l15.5,44.1h1.8l15.1-43.3h0.1v41.5H40v1.8h17.8v-1.8h-4.2v-42H57.8z"/>
<path class="st0" d="M68.2,88.6v-4.4c0-4.3,1.9-5.7,4.1-5.7c3.1,0,4.1,2.1,4.1,5.7v4.4H68.2z M68.2,90.4h17.9
	c-0.1-7-6.5-13.7-13.4-13.6c-7.6,0-14.3,6.6-14.3,15.4c0,8.4,6.2,14.7,14.5,14.7c8,0,11.9-4.9,13.4-11.3h-1.8
	c-1.4,6-4.6,9.5-9.6,9.5c-6,0-6.7-4.7-6.7-9.1V90.4z"/>
<path class="st0" d="M142.6,143.7v-4.4c0-4.3,1.9-5.7,4.1-5.7c3.1,0,4.1,2.1,4.1,5.7v4.4H142.6z M142.6,145.5h17.9
	c-0.1-7-6.5-13.7-13.4-13.6c-7.6,0-14.3,6.6-14.3,15.4c0,8.4,6.2,14.7,14.5,14.7c8,0,11.9-4.9,13.4-11.3H159c-1.4,6-4.6,9.5-9.6,9.5
	c-6,0-6.7-4.7-6.7-9.1V145.5z"/>
<polygon class="st0" points="86.2,60.6 86.2,62.2 90.7,62.2 90.7,104.2 86.2,104.2 86.2,106.1 104.1,106.1 104.1,104.2 99.6,104.2 
	99.6,60.6 "/>
<polygon class="st0" points="105.3,60.6 105.3,62.2 109.8,62.2 109.8,104.2 105.3,104.2 105.3,106.1 123.2,106.1 123.2,104.2 
	118.7,104.2 118.7,60.6 "/>
<path class="st0" d="M143.8,98.2c0,4.9-2,6.9-5.3,6.9c-3.3,0-5.3-2-5.3-6.9V85.5c0-4.9,2-6.9,5.3-6.9c3.3,0,5.3,2,5.3,6.9V98.2z
	 M153.9,91.8c0-8.9-6.9-15-15.4-15c-8.6,0-15.4,6.2-15.4,15c0,8.9,6.9,15,15.4,15C147,106.9,153.9,100.7,153.9,91.8"/>
<path class="st0" d="M5.6,117.2h4.5V146c0,10,6.9,16.1,17.5,16.1c11.9,0,17.1-6.3,17.1-15.8v-24.6c0-3.8,1-4.5,3.4-4.5h1.3v-1.7H38
	v1.7h0.8c3.3,0,3.8,1,3.8,4.8v25c0,8.8-5.5,12.8-11,12.8c-9.5,0-11.3-6.4-11.9-14.6v-27.9h4.2v-1.7H5.6V117.2z"/>
<path class="st0" d="M117.9,161.9h1.7l9.6-22.7c1.9-4.2,3-4.8,4.5-4.8h0.6v-1.8h-10.1v1.8h1.2c1.9,0,2.7-0.1,2.7,1.6
	c0,1-0.3,2.1-1.1,3.9l-4.4,10.4l-7.1-15.9h3.6v-1.8h-16.3v1.8h3L117.9,161.9z"/>
<path class="st0" d="M190.1,161.9h1.5c0.3-1,1-1.6,2.3-1.6c1.7,0,3.7,1.6,7.3,1.6c6.2,0,10.4-5.3,10.4-10.6c0-7.9-5.4-8.5-12.4-9.5
	c-3.6-0.5-5.7-1-5.7-3.9c0-3,2.7-4.3,6.2-4.3c4.9,0,6.7,3.2,8.4,7.4h1.5l0-9.2h-1.5c0,0.8-0.7,1.4-1.9,1.4c-2.1,0-3.8-1.4-6.7-1.4
	c-6.5,0-9.7,5.5-9.7,9.7c0,8.4,6.4,9.1,11.3,9.7c4.7,0.6,6.4,0.9,6.4,3.9c0,3.4-2.9,5-6.4,5c-4.9,0-8.3-4.3-9.5-9h-1.5V161.9z"/>
<polygon class="st0" points="100.5,159.4 100.5,132.6 87.1,132.6 87.1,134.4 91.6,134.4 91.6,159.4 87.1,159.4 87.1,161.2 
	105,161.2 105,159.4 "/>
<path class="st0" d="M91.6,123.6c0,2.5,2,4.5,4.5,4.5c2.5,0,4.5-2,4.5-4.5c0-2.5-2-4.5-4.5-4.5C93.6,119.1,91.6,121.1,91.6,123.6"/>
<path class="st0" d="M217.1,123.6c0,2.5,2,4.5,4.5,4.5c2.5,0,4.5-2,4.5-4.5c0-2.5-2-4.5-4.5-4.5
	C219.1,119.1,217.1,121.1,217.1,123.6"/>
<path class="st0" d="M155.4,32.3v-4.4c0-4.3,1.9-5.7,4.1-5.7c3.1,0,4.1,2.1,4.1,5.7v4.4H155.4z M155.4,34.1h17.9
	c-0.1-7-6.5-13.7-13.4-13.6c-7.6,0-14.3,6.6-14.3,15.4c0,8.4,6.2,14.7,14.5,14.7c8,0,11.9-4.9,13.4-11.3h-1.8
	c-1.4,6-4.6,9.5-9.6,9.5c-6,0-6.7-4.7-6.7-9.1V34.1z"/>
<path class="st0" d="M233.6,32.3v-4.4c0-4.3,1.9-5.7,4.1-5.7c2.3,0,4.1,1.3,4.1,5.7v4.4H233.6z M233.6,34.1h17.9
	c-0.1-7-6.5-13.7-13.4-13.6c-7.6,0-14.3,6.6-14.3,15.4c0,8.4,6.2,14.7,14.5,14.7c8,0,11.9-4.9,13.4-11.3H250c-1.4,6-4.6,9.5-9.6,9.5
	c-6,0-6.7-4.7-6.7-9.1V34.1z"/>
<path class="st0" d="M81.4,159.4v-17.5c0-7-3-10.3-9.1-10.3c-4.3,0-8.7,2.5-10.5,6.3h0v-5.2H48.3v1.7h4.5v25h-4.5v1.8h17.2v-1.8
	h-3.8v-17.1c0.6-2.4,3.6-8,7.1-8c2.4,0,3.5,0.8,3.5,5.2v19.9h-3.7v1.8h17.1v-1.8H81.4z"/>
<path class="st0" d="M186.9,104.3V86.8c0-7-3-10.3-9.1-10.3c-4.3,0-8.7,2.5-10.5,6.3h0v-5.2h-13.4v1.7h4.5v25h-4.5v1.8h17.2v-1.8
	h-3.8V87.2c0.6-2.4,3.6-8,7.1-8c2.4,0,3.5,0.8,3.5,5.2v19.9h-3.7v1.8h17.1v-1.8H186.9z"/>
<path class="st0" d="M141.1,48V30.5c0-7-3-10.3-9.1-10.3c-4.3,0-8.7,2.5-10.5,6.3h0v-5.2h-13.4V23h4.5v25h-4.5v1.8h17.2V48h-3.8
	V30.9c0.6-2.4,3.6-8,7.1-8c2.4,0,3.5,0.8,3.5,5.2V48h-3.7v1.8h17.1V48H141.1z"/>
<path class="st0" d="M210.2,12.3c0,2.5,2,4.5,4.5,4.5c2.5,0,4.5-2,4.5-4.5c0-2.5-2-4.5-4.5-4.5C212.2,7.8,210.2,9.8,210.2,12.3"/>
<g>
	<polygon class="st0" points="226.1,132.6 212.7,132.6 212.7,134.4 217.1,134.4 217.1,159.4 212.7,159.4 212.7,161.2 230.6,161.2 
		230.6,159.4 226.1,159.4 	"/>
	<path class="st0" d="M269.6,132.6v1.9c2.8,0,4,0.3,4,1.5c0,1-0.3,2.1-1.1,3.9l-4.4,10.4l-7-15.8h3.7v-1.9h-22.3v-13.9h-1.2
		c0,6.9-4.7,13.9-11.2,13.9v1.9h3.4v20.1c0,6.2,5.3,7.4,7.1,7.4c4,0,6.6-1.6,8.6-5l-1.4-0.8c-0.8,1.2-1.8,2.7-3.4,2.7
		c-1.3,0-2-0.9-2-3.1v-21.4h9l11.8,27.3l-4.1,9.7l0,0c0,0,0,0,0,0l0,0c-0.1,0.2-0.3,0.3-0.5,0.3c-0.2,0-0.4-0.2-0.5-0.4c0,0,0,0,0,0
		c-0.5-1.9-2.2-3.2-4.3-3.2c-2.5,0-4.5,2-4.5,4.5c0,1.7,1,3.2,2.4,4c0,0,0,0,0,0c0,0,0.1,0,0.1,0.1c0.1,0,0.2,0.1,0.3,0.1
		c0.5,0.2,1,0.3,1.6,0.3c3.8,0.3,5.7-2.5,7-5.3c0.3-0.6,0.6-1.3,0.8-1.9c0.6-1.4,1.6-3.7,2.7-6.5l0,0l1.1-2.6l0,0l9.1-21.6
		c1.9-4.2,2.7-4.8,5-4.8h0v-1.9H269.6z"/>
</g>
<path class="st0" d="M101.5,20.1c-4.1,0-7.3,2.9-8.6,6.1h-0.1v-4.9H79.6v1.8H84v24.9h-4.5v1.8h19.4v-1.8h-6v-14
	c0-4.2,1.1-8.4,3.8-10.8c0.2-0.1,0.4-0.1,0.6-0.1c0.2,0.1,0.3,0.3,0.3,0.6l0,0c-0.2,0.5-0.3,1.1-0.3,1.8c-0.1,2.4,1.9,4.2,4.4,4.2
	c3.1,0,4.9-2.3,4.9-4.7C106.7,22,104.6,20.1,101.5,20.1z"/>
<path class="st0" d="M199.1,22.3c0.1,0,0.3-0.1,0.4,0c0.1,0.1,0.1,0.2,0,0.4l0,0c-0.4,0.7-0.5,1.5-0.2,2.4c0.3,0.9,1.1,1.6,2,1.8
	c1.9,0.4,3.5-0.9,3.5-2.7c0-1.1-0.7-2-1.5-2.5c-0.8-0.5-1.8-0.8-2.9-0.8c-1.7,0-3.5,0.9-4.8,2c0,0,0,0,0,0c-0.3-0.2-0.6-0.4-0.9-0.6
	c-1.8-1-4.1-1.7-7.2-1.7c-5.4,0-11.3,3.6-11.3,9.5c0,3.6,1.9,6.4,5.4,7.9V38c-2.5,0.3-6.5,2.1-6.5,7.5c0,3.2,1.5,5.7,4.2,6.5V52
	c-2.6,0.7-5.6,3.3-5.6,6.4c0,4.8,5.6,8.5,12.8,8.5c9,0,14.9-6.1,14.9-14c0-6.3-3.1-9.1-9.5-9h-10.8c-1.6,0-2.7-0.1-2.7-1.8
	c0-1.6,2.5-3.4,4.9-3.4c0.4,0,1.1,0.3,1.3,0.4c0.8,0.3,1.6,0.4,2.7,0.4c5.6,0,11.5-3.2,11.5-9.3c0-1.9-0.8-4.5-2.4-6.1
	c-0.1-0.1-0.1-0.2,0-0.3c0.6-0.5,1.3-0.9,1.7-1.1C198.6,22.5,198.8,22.3,199.1,22.3L199.1,22.3z M190.5,52.1c6.5,0,8.2,0.3,8.2,4.2
	c0,4.7-5.8,9.1-12.3,9.1c-5.8,0-8.6-3.6-8.8-6.7c0-2.9,1.4-4.7,3.2-6.6H190.5z M191.6,29.9c0,7.5-1.7,7.8-4.1,7.8c-2.6,0-4-0.5-4-8
	c0-5.3,0.6-7.5,4-7.5C190.5,22.3,191.5,22.5,191.6,29.9L191.6,29.9z"/>
<path class="st0" d="M183.2,131.4c-4.1,0-7.3,2.9-8.6,6.1h-0.1v-4.9h-13.3v1.8h4.5v24.9h-4.5v1.8h19.4v-1.8h-6v-14
	c0-4.2,1.1-8.4,3.8-10.8c0.2-0.1,0.4-0.1,0.6-0.1c0.2,0.1,0.3,0.3,0.3,0.6l0,0c-0.2,0.5-0.3,1.1-0.3,1.8c-0.1,2.4,1.9,4.2,4.4,4.2
	c3.1,0,4.9-2.3,4.9-4.7C188.3,133.3,186.3,131.4,183.2,131.4z"/>
</svg>
