<?xml version="1.0" encoding="UTF-8" standalone="no"?>
<svg
   xmlns:dc="http://purl.org/dc/elements/1.1/"
   xmlns:cc="http://creativecommons.org/ns#"
   xmlns:rdf="http://www.w3.org/1999/02/22-rdf-syntax-ns#"
   xmlns:svg="http://www.w3.org/2000/svg"
   xmlns="http://www.w3.org/2000/svg"
   viewBox="0 0 400.57333 78.133331"
   height="78.133331"
   width="400.57333"
   xml:space="preserve"
   id="svg2"
   version="1.1"><metadata
     id="metadata8"><rdf:RDF><cc:Work
         rdf:about=""><dc:format>image/svg+xml</dc:format><dc:type
           rdf:resource="http://purl.org/dc/dcmitype/StillImage" /></cc:Work></rdf:RDF></metadata><defs
     id="defs6" /><g
     transform="matrix(1.3333333,0,0,-1.3333333,0,78.133333)"
     id="g10"><g
       transform="scale(0.1)"
       id="g12"><path
         id="path14"
         style="fill:#231f20;fill-opacity:1;fill-rule:nonzero;stroke:none"
         d="M 269.297,45.8594 C 210.52,77.1484 160.281,145.703 137.273,232.695 c 22.102,-1.308 46.028,-1.484 71.477,-0.273 -3.027,13.281 -5.867,26.797 -8.445,40.586 -0.715,3.808 -1.36,7.597 -2.035,11.406 -26.219,-0.117 -50.348,1.524 -71.598,4.805 -10.156,89.648 11.891,171.992 55.496,222.48 C 111.648,468.828 65.6055,393.203 60.8906,309.688 c -12.7148,7.578 -20.9179,16.757 -23.5664,27.402 -0.6445,2.598 -0.8203,5.137 -0.664,7.558 C 9.21875,326.172 -4.64844,306.68 0,287.461 4.875,267.305 28.9648,252.148 66.1328,242.754 88.0391,139.297 170.488,63.4961 269.297,45.8594" /><path
         id="path16"
         style="fill:#231f20;fill-opacity:1;fill-rule:nonzero;stroke:none"
         d="m 612.668,398.828 c -4.629,19.219 -26.484,32.168 -60.344,39.492 1.824,-2.89 3.235,-6.035 4.094,-9.531 2.742,-11.035 -0.941,-22.676 -9.668,-34.375 -33.625,79.18 -105.273,135.352 -188.527,150.234 60.175,-32.011 111.433,-103.085 133.652,-193.046 -27.539,-14.903 -62.461,-28.633 -102.363,-39.805 0.363,-1.914 0.722,-3.848 1.086,-5.781 2.808,-15.02 5.527,-29.786 8.152,-44.297 38.113,9.902 72.805,21.621 102.695,34.375 8.739,-87.637 -13.34,-167.774 -56.101,-217.3049 83.953,51.0739 133.133,148.4569 119.246,250.4299 35.058,23.301 53.359,47.695 48.078,69.609" /><path
         id="path18"
         style="fill:#990000;fill-opacity:1;fill-rule:nonzero;stroke:none"
         d="M 397.656,53.3789 C 349.414,42.2656 290.422,144.063 265.918,280.703 c -24.512,136.68 -5.266,256.485 42.988,267.578 2.61,0.625 5.125,0.762 7.571,0.606 -18.332,26.23 -37.715,39.551 -56.985,35.234 C 206.035,572.188 186.855,431.738 216.648,270.43 246.445,109.141 313.934,-11.9531 367.395,0 c 19.214,4.29688 32.293,25 39.8,57.207 -2.886,-1.6992 -6.043,-3.0273 -9.539,-3.8281" /><path
         id="path20"
         style="fill:#231f20;fill-opacity:1;fill-rule:nonzero;stroke:none"
         d="m 822.219,447.996 h -65.774 v -61.238 h 73.582 v -18.399 h -95.754 v 169.848 h 91.977 v -18.398 h -69.805 v -53.676 h 65.774 v -18.137" /><path
         id="path22"
         style="fill:#231f20;fill-opacity:1;fill-rule:nonzero;stroke:none"
         d="m 858.242,547.281 h 22.172 V 368.359 h -22.172 v 178.922" /><path
         id="path24"
         style="fill:#231f20;fill-opacity:1;fill-rule:nonzero;stroke:none"
         d="m 930.059,441.441 c 1.761,15.372 11.336,36.036 34.019,36.036 24.695,0 30.746,-22.18 30.492,-36.036 z m 85.171,-16.128 c 0.51,2.519 0.76,6.046 0.76,10.582 0,22.433 -10.33,57.457 -50.146,57.457 -35.531,0 -57.453,-28.981 -57.453,-66.024 0,-36.543 22.672,-61.488 59.972,-61.488 19.407,0 33.007,4.281 40.817,7.812 l -4.02,15.625 c -8.07,-3.277 -17.898,-6.05 -33.773,-6.05 -22.176,0 -41.074,12.351 -41.582,42.336 l 85.425,-0.25" /><path
         id="path26"
         style="fill:#231f20;fill-opacity:1;fill-rule:nonzero;stroke:none"
         d="m 1130.39,372.641 c -5.79,-2.766 -18.64,-7.055 -35.02,-7.055 -36.8,0 -60.73,24.953 -60.73,62.496 0,37.547 25.7,65.02 65.52,65.02 13.1,0 24.69,-3.278 30.74,-6.555 l -5.04,-16.883 c -5.29,2.774 -13.61,5.797 -25.7,5.797 -27.98,0 -43.09,-20.918 -43.09,-46.367 0,-28.223 18.14,-45.614 42.33,-45.614 12.6,0 20.92,3.024 27.22,5.797 l 3.77,-16.636" /><path
         id="path28"
         style="fill:#231f20;fill-opacity:1;fill-rule:nonzero;stroke:none"
         d="m 1186.32,519.563 v -29.235 h 31.76 v -16.887 h -31.76 v -65.769 c 0,-15.121 4.29,-23.688 16.64,-23.688 6.04,0 9.58,0.504 12.85,1.512 l 1.01,-16.883 c -4.28,-1.511 -11.09,-3.027 -19.66,-3.027 -10.33,0 -18.65,3.531 -23.94,9.328 -6.05,6.801 -8.57,17.637 -8.57,32 v 66.527 h -18.9 v 16.887 h 18.9 v 22.426 l 21.67,6.809" /><path
         id="path30"
         style="fill:#231f20;fill-opacity:1;fill-rule:nonzero;stroke:none"
         d="m 1243.28,452.277 c 0,14.364 -0.26,26.715 -1.01,38.051 h 19.4 l 1.01,-23.941 h 0.76 c 5.54,16.383 19.15,26.715 34.02,26.715 2.26,0 4.03,-0.254 6.04,-0.758 V 471.68 c -2.52,0.25 -4.79,0.504 -7.81,0.504 -15.62,0 -26.71,-11.848 -29.73,-28.223 -0.51,-3.277 -0.76,-6.805 -0.76,-10.586 v -65.016 h -22.18 l 0.26,83.918" /><path
         id="path32"
         style="fill:#231f20;fill-opacity:1;fill-rule:nonzero;stroke:none"
         d="m 1326.41,368.359 v 121.969 h 22.18 V 368.359 Z M 1337,512.754 c -8.32,0 -13.86,6.555 -13.86,14.367 0,7.813 5.79,14.109 14.36,14.109 8.56,0 14.11,-6.296 14.11,-14.109 0,-7.812 -5.55,-14.367 -14.36,-14.367 H 1337" /><path
         id="path34"
         style="fill:#231f20;fill-opacity:1;fill-rule:nonzero;stroke:none"
         d="m 1472.31,372.641 c -5.79,-2.766 -18.64,-7.055 -35.02,-7.055 -36.79,0 -60.73,24.953 -60.73,62.496 0,37.547 25.7,65.02 65.51,65.02 13.11,0 24.7,-3.278 30.75,-6.555 l -5.04,-16.883 c -5.29,2.774 -13.6,5.797 -25.71,5.797 -27.96,0 -43.09,-20.918 -43.09,-46.367 0,-28.223 18.15,-45.614 42.34,-45.614 12.6,0 20.91,3.024 27.22,5.797 l 3.77,-16.636" /><path
         id="path36"
         style="fill:#231f20;fill-opacity:1;fill-rule:nonzero;stroke:none"
         d="m 1562.78,409.434 c 0,-2.266 -0.26,-4.786 -1.01,-7.055 -3.53,-10.332 -13.86,-20.41 -29.99,-20.41 -11.09,0 -20.66,6.551 -20.66,21.168 0,23.687 27.47,27.972 51.66,27.468 z m 21.67,33.769 c 0,24.445 -9.07,49.899 -46.62,49.899 -15.37,0 -30.24,-4.289 -40.32,-10.586 l 5.04,-14.868 c 8.57,5.793 20.41,9.071 32,9.071 24.95,0.254 27.72,-18.145 27.72,-28.223 v -2.519 c -47.12,0.25 -73.33,-15.879 -73.33,-45.36 0,-17.644 12.6,-35.031 37.3,-35.031 17.39,0 30.74,8.57 37.3,18.144 h 0.75 l 2.02,-15.371 h 19.9 c -1.25,8.317 -1.76,18.649 -1.76,29.235 v 45.609" /><path
         id="path38"
         style="fill:#231f20;fill-opacity:1;fill-rule:nonzero;stroke:none"
         d="m 1619.98,547.281 h 22.17 V 368.359 h -22.17 v 178.922" /><path
         id="path40"
         style="fill:#231f20;fill-opacity:1;fill-rule:nonzero;stroke:none"
         d="m 2081.19,373.652 c -7.81,-4.031 -24.19,-8.066 -44.86,-8.066 -47.88,0 -83.66,30.242 -83.66,86.187 0,53.422 36.04,89.204 88.7,89.204 20.92,0 34.52,-4.536 40.33,-7.559 l -5.55,-17.891 c -8.06,4.036 -19.9,7.055 -34.02,7.055 -39.82,0 -66.27,-25.453 -66.27,-70.051 0,-41.836 23.93,-68.297 65.02,-68.297 13.6,0 27.21,2.774 36.03,7.055 l 4.28,-17.637" /><path
         id="path42"
         style="fill:#231f20;fill-opacity:1;fill-rule:nonzero;stroke:none"
         d="m 2155.04,382.223 c -21.42,0 -36.54,20.156 -36.54,46.871 0,23.183 11.34,47.371 37.3,47.371 26.21,0 36.54,-25.953 36.54,-46.617 0,-27.719 -15.88,-47.625 -37.05,-47.625 z m -0.25,-16.637 c 28.98,0 60.48,19.66 60.48,65.019 0,37.043 -23.69,62.497 -58.72,62.497 -33.52,0 -60.48,-23.942 -60.48,-64.766 0,-38.555 25.7,-62.75 58.47,-62.75 h 0.25" /><path
         id="path44"
         style="fill:#231f20;fill-opacity:1;fill-rule:nonzero;stroke:none"
         d="m 2243.24,457.316 c 0,12.852 -0.51,22.934 -1.01,33.012 h 19.41 l 1,-19.66 h 0.75 c 6.81,11.594 18.15,22.434 38.56,22.434 16.39,0 28.98,-10.082 34.28,-24.442 h 0.5 c 3.78,7.055 8.82,12.094 13.86,15.871 7.3,5.543 15.12,8.571 26.71,8.571 16.38,0 40.32,-10.586 40.32,-52.922 v -71.821 h -21.67 v 69.051 c 0,23.684 -8.82,37.547 -26.46,37.547 -12.85,0 -22.42,-9.328 -26.46,-19.906 -1.01,-3.278 -1.76,-7.309 -1.76,-11.09 v -75.602 h -21.68 v 73.082 c 0,19.653 -8.57,33.516 -25.45,33.516 -13.61,0 -23.94,-11.09 -27.46,-22.176 -1.27,-3.277 -1.77,-7.058 -1.77,-10.836 v -73.586 h -21.67 v 88.957" /><path
         id="path46"
         style="fill:#231f20;fill-opacity:1;fill-rule:nonzero;stroke:none"
         d="m 2475.58,439.172 c 0,2.773 0.75,6.047 1.26,9.07 4.29,16.633 18.65,27.219 33.77,27.219 23.44,0 36.03,-20.918 36.03,-45.363 0,-27.969 -13.61,-47.125 -37.03,-47.125 -15.63,0 -29.24,10.586 -33.02,25.957 -0.75,2.773 -1.01,6.05 -1.01,9.074 z M 2453.4,318.461 h 22.18 v 66.281 h 0.51 c 7.3,-12.101 21.16,-19.156 37.55,-19.156 28.47,0 55.44,21.676 55.44,65.523 0,37.039 -22.18,61.993 -51.92,61.993 -19.66,0 -34.27,-8.571 -43.09,-23.692 h -0.5 l -1.26,20.918 h -19.91 c 0.75,-11.594 1,-24.195 1,-39.816 V 318.461" /><path
         id="path48"
         style="fill:#231f20;fill-opacity:1;fill-rule:nonzero;stroke:none"
         d="m 2698.85,401.621 c 0,-12.598 0.25,-23.687 1.01,-33.262 h -19.66 l -1.26,19.907 h -0.51 c -5.54,-9.828 -18.64,-22.68 -40.31,-22.68 -19.15,0 -42.09,10.84 -42.09,53.43 v 71.312 h 22.18 v -67.285 c 0,-23.184 7.3,-39.059 27.22,-39.059 14.87,0 25.2,10.332 29.22,20.411 1.26,3.023 2.03,7.058 2.03,11.343 v 74.59 h 22.17 v -88.707" /><path
         id="path50"
         style="fill:#231f20;fill-opacity:1;fill-rule:nonzero;stroke:none"
         d="m 2762.35,519.563 v -29.235 h 31.76 v -16.887 h -31.76 v -65.769 c 0,-15.121 4.29,-23.688 16.63,-23.688 6.06,0 9.58,0.504 12.85,1.512 l 1.02,-16.883 c -4.29,-1.511 -11.1,-3.027 -19.66,-3.027 -10.33,0 -18.65,3.531 -23.94,9.328 -6.05,6.801 -8.57,17.637 -8.57,32 v 66.527 h -18.9 v 16.887 h 18.9 v 22.426 l 21.67,6.809" /><path
         id="path52"
         style="fill:#231f20;fill-opacity:1;fill-rule:nonzero;stroke:none"
         d="m 2830.43,441.441 c 1.76,15.372 11.33,36.036 34.02,36.036 24.69,0 30.74,-22.18 30.49,-36.036 z m 85.17,-16.128 c 0.51,2.519 0.76,6.046 0.76,10.582 0,22.433 -10.33,57.457 -50.15,57.457 -35.53,0 -57.46,-28.981 -57.46,-66.024 0,-36.543 22.68,-61.488 59.98,-61.488 19.4,0 33.01,4.281 40.82,7.812 l -4.03,15.625 c -8.06,-3.277 -17.89,-6.05 -33.77,-6.05 -22.18,0 -41.07,12.351 -41.58,42.336 l 85.43,-0.25" /><path
         id="path54"
         style="fill:#231f20;fill-opacity:1;fill-rule:nonzero;stroke:none"
         d="m 2944.08,452.277 c 0,14.364 -0.26,26.715 -1.01,38.051 h 19.41 l 1,-23.941 h 0.75 c 5.55,16.383 19.15,26.715 34.03,26.715 2.26,0 4.03,-0.254 6.04,-0.758 V 471.68 c -2.52,0.25 -4.78,0.504 -7.81,0.504 -15.63,0 -26.71,-11.848 -29.74,-28.223 -0.5,-3.277 -0.75,-6.805 -0.75,-10.586 v -65.016 h -22.18 l 0.26,83.918" /><path
         id="path56"
         style="fill:#231f20;fill-opacity:1;fill-rule:nonzero;stroke:none"
         d="M 872.035,170.695 H 767.895 V 73.7344 H 884.402 V 44.6094 H 732.789 V 313.535 H 878.422 V 284.41 H 767.895 v -84.992 h 104.14 v -28.723" /><path
         id="path58"
         style="fill:#231f20;fill-opacity:1;fill-rule:nonzero;stroke:none"
         d="M 929.488,44.6094 V 313.535 h 38.305 l 85.787,-136.058 c 19.55,-31.52 35.51,-59.45 47.88,-87.3793 l 1.2,0.3984 c -3.2,35.9099 -4,68.6249 -4,110.1249 v 112.914 h 32.72 V 44.6094 h -35.11 l -85.39,136.4566 c -18.747,29.926 -36.704,60.649 -49.868,89.774 l -1.199,-0.395 c 1.996,-33.914 2.394,-66.234 2.394,-110.922 V 44.6094 h -32.719" /><path
         id="path60"
         style="fill:#231f20;fill-opacity:1;fill-rule:nonzero;stroke:none"
         d="m 1397.11,56.5781 c -15.56,-5.9804 -46.68,-14.7617 -82.99,-14.7617 -40.7,0 -74.21,10.375 -100.55,35.5117 -23.14,22.3438 -37.51,58.2539 -37.51,100.1489 0,80.199 55.47,138.851 145.64,138.851 31.12,0 55.86,-6.781 67.43,-12.367 l -8.78,-28.332 c -14.36,6.785 -32.31,11.574 -59.45,11.574 -65.43,0 -108.13,-40.699 -108.13,-108.129 0,-68.23 40.7,-108.531 103.75,-108.531 22.74,0 38.3,3.1914 46.28,7.1836 v 80.1994 h -54.26 v 27.929 h 88.57 V 56.5781" /><path
         id="path62"
         style="fill:#231f20;fill-opacity:1;fill-rule:nonzero;stroke:none"
         d="M 1484.49,313.535 V 44.6094 h -35.11 V 313.535 h 35.11" /><path
         id="path64"
         style="fill:#231f20;fill-opacity:1;fill-rule:nonzero;stroke:none"
         d="M 1545.14,44.6094 V 313.535 h 38.3 l 85.78,-136.058 c 19.55,-31.52 35.52,-59.45 47.89,-87.3793 l 1.19,0.3984 c -3.19,35.9099 -3.99,68.6249 -3.99,110.1249 v 112.914 h 32.73 V 44.6094 h -35.12 l -85.38,136.4566 c -18.76,29.926 -36.71,60.649 -49.88,89.774 l -1.2,-0.395 c 2,-33.914 2.4,-66.234 2.4,-110.922 V 44.6094 h -32.72" /><path
         id="path66"
         style="fill:#231f20;fill-opacity:1;fill-rule:nonzero;stroke:none"
         d="M 1946.53,170.695 H 1842.39 V 73.7344 H 1958.9 V 44.6094 H 1807.28 V 313.535 h 145.63 V 284.41 h -110.52 v -84.992 h 104.14 v -28.723" /><path
         id="path68"
         style="fill:#231f20;fill-opacity:1;fill-rule:nonzero;stroke:none"
         d="M 2142.84,170.695 H 2038.7 V 73.7344 h 116.5 V 44.6094 H 2003.58 V 313.535 h 145.63 V 284.41 H 2038.7 v -84.992 h 104.14 v -28.723" /><path
         id="path70"
         style="fill:#231f20;fill-opacity:1;fill-rule:nonzero;stroke:none"
         d="m 2235,285.207 c 5.98,1.594 17.55,3.191 34.31,3.191 36.71,0 61.85,-15.16 61.85,-49.878 0,-30.723 -23.55,-51.067 -60.65,-51.067 H 2235 Z M 2200.29,44.6094 H 2235 V 161.121 h 32.72 c 31.51,-1.199 46.28,-15.164 54.26,-52.273 7.18,-33.516 13.16,-56.6566 17.56,-64.2386 h 35.91 c -5.19,10.375 -11.58,36.3086 -20.36,73.8126 -6.77,27.93 -19.15,47.086 -39.5,54.266 v 1.199 c 27.93,9.574 50.68,33.117 50.68,68.23 0,21.145 -7.98,39.5 -21.15,51.067 -16.76,15.168 -41.09,22.343 -78.2,22.343 -23.54,0 -49.08,-2.39 -66.63,-5.98 V 44.6094" /><path
         id="path72"
         style="fill:#231f20;fill-opacity:1;fill-rule:nonzero;stroke:none"
         d="M 2449.65,313.535 V 44.6094 h -35.1 V 313.535 h 35.1" /><path
         id="path74"
         style="fill:#231f20;fill-opacity:1;fill-rule:nonzero;stroke:none"
         d="M 2510.31,44.6094 V 313.535 h 38.3 l 85.78,-136.058 c 19.55,-31.52 35.52,-59.45 47.88,-87.3793 l 1.2,0.3984 c -3.19,35.9099 -3.99,68.6249 -3.99,110.1249 v 112.914 h 32.72 V 44.6094 h -35.11 L 2591.7,181.066 c -18.75,29.926 -36.7,60.649 -49.88,89.774 l -1.19,-0.395 c 1.99,-33.914 2.39,-66.234 2.39,-110.922 V 44.6094 h -32.71" /><path
         id="path76"
         style="fill:#231f20;fill-opacity:1;fill-rule:nonzero;stroke:none"
         d="m 2977.93,56.5781 c -15.56,-5.9804 -46.68,-14.7617 -82.99,-14.7617 -40.7,0 -74.22,10.375 -100.55,35.5117 -23.14,22.3438 -37.51,58.2539 -37.51,100.1489 0,80.199 55.46,138.851 145.64,138.851 31.12,0 55.86,-6.781 67.43,-12.367 l -8.78,-28.332 c -14.37,6.785 -32.32,11.574 -59.45,11.574 -65.43,0 -108.13,-40.699 -108.13,-108.129 0,-68.23 40.7,-108.531 103.74,-108.531 22.74,0 38.3,3.1914 46.29,7.1836 v 80.1994 h -54.27 v 27.929 h 88.58 V 56.5781" /><path
         id="path78"
         style="fill:#990000;fill-opacity:1;fill-rule:nonzero;stroke:none"
         d="m 1768.52,387.246 c -24.25,0 -37.8,16.055 -37.8,36.543 0,25.82 21.73,40.938 35.59,49.453 15.74,-26.465 34.01,-52.304 44.1,-67.109 -10.72,-11.328 -24.88,-18.887 -41.58,-18.887 z m 98.28,-17.012 c -10.39,12.598 -18.91,24.258 -26.78,35.274 19.53,20.176 33.09,46.64 44.73,80.644 h -24.55 c -9.14,-26.777 -19.22,-47.558 -32.15,-63.632 -11.01,15.761 -26.44,39.062 -38.12,58.925 v 0.938 c 36.56,16.992 54.53,36.523 54.53,61.719 0,22.695 -14.53,41.914 -42.85,41.914 -32.78,0 -56.4,-26.465 -56.4,-58.282 0,-12.597 4.1,-24.882 11.65,-38.437 v -0.938 c -26.14,-12.91 -52.61,-35.273 -52.61,-68.671 0,-29.297 20.8,-52.93 57.36,-52.93 23.3,0 42.18,6.953 59.82,23.008 5.06,-7.559 9.16,-13.223 14.49,-19.532 z m -67.4,197.188 c 15.43,0 21.09,-11.641 21.09,-23.945 0,-20.157 -15.1,-34.004 -40.62,-46.289 -6.94,11.015 -10.1,21.718 -10.1,33.71 0,20.782 13.24,36.524 29.3,36.524 h 0.33" /></g></g></svg>