<?xml version="1.0" encoding="UTF-8" standalone="no"?>
<svg width="1280px" height="525px" viewBox="0 0 1280 525" version="1.1" xmlns="http://www.w3.org/2000/svg" xmlns:xlink="http://www.w3.org/1999/xlink">
    <!-- Generator: Sketch 40 (33762) - http://www.bohemiancoding.com/sketch -->
    <title>Group 3</title>
    <desc>Created with Sketch.</desc>
    <defs>
        <linearGradient x1="50%" y1="0%" x2="50%" y2="100%" id="linearGradient-1">
            <stop stop-color="#FFFFFF" offset="0%"></stop>
            <stop stop-color="#CDE6F1" offset="100%"></stop>
        </linearGradient>
        <rect id="path-2" x="0.151125402" y="0.162650602" width="149.324759" height="178.915663" rx="4"></rect>
        <mask id="mask-3" maskContentUnits="userSpaceOnUse" maskUnits="objectBoundingBox" x="0" y="0" width="149.324759" height="178.915663" fill="white">
            <use xlink:href="#path-2"></use>
        </mask>
        <rect id="path-4" x="379.948553" y="233.584337" width="58.0707395" height="36.4457831"></rect>
        <mask id="mask-5" maskContentUnits="userSpaceOnUse" maskUnits="objectBoundingBox" x="0" y="0" width="58.0707395" height="36.4457831" fill="white">
            <use xlink:href="#path-4"></use>
        </mask>
        <rect id="path-6" x="308.604502" y="91.1144578" width="207.395498" height="144.126506" rx="4"></rect>
        <mask id="mask-7" maskContentUnits="userSpaceOnUse" maskUnits="objectBoundingBox" x="0" y="0" width="207.395498" height="144.126506" fill="white">
            <use xlink:href="#path-6"></use>
        </mask>
        <rect id="path-8" x="321.877814" y="101.054217" width="180.848875" height="125.903614" rx="4"></rect>
        <mask id="mask-9" maskContentUnits="userSpaceOnUse" maskUnits="objectBoundingBox" x="0" y="0" width="180.848875" height="125.903614" fill="white">
            <use xlink:href="#path-8"></use>
        </mask>
        <rect id="path-10" x="335.151125" y="28.1626506" width="149.324759" height="178.915663" rx="4"></rect>
        <mask id="mask-11" maskContentUnits="userSpaceOnUse" maskUnits="objectBoundingBox" x="0" y="0" width="149.324759" height="178.915663" fill="white">
            <use xlink:href="#path-10"></use>
        </mask>
        <rect id="path-12" x="212.37299" y="157.379518" width="149.324759" height="99.3975904" rx="4"></rect>
        <mask id="mask-13" maskContentUnits="userSpaceOnUse" maskUnits="objectBoundingBox" x="0" y="0" width="149.324759" height="99.3975904" fill="white">
            <use xlink:href="#path-12"></use>
        </mask>
        <rect id="path-14" x="223.987138" y="165.662651" width="127.755627" height="84.4879518" rx="4"></rect>
        <mask id="mask-15" maskContentUnits="userSpaceOnUse" maskUnits="objectBoundingBox" x="0" y="0" width="127.755627" height="84.4879518" fill="white">
            <use xlink:href="#path-14"></use>
        </mask>
        <rect id="path-16" x="335.151125" y="28.1626506" width="149.324759" height="178.915663" rx="4"></rect>
        <mask id="mask-17" maskContentUnits="userSpaceOnUse" maskUnits="objectBoundingBox" x="0" y="0" width="149.324759" height="178.915663" fill="white">
            <use xlink:href="#path-16"></use>
        </mask>
        <rect id="path-18" x="335.151125" y="28.1626506" width="149.324759" height="178.915663" rx="4"></rect>
        <mask id="mask-19" maskContentUnits="userSpaceOnUse" maskUnits="objectBoundingBox" x="0" y="0" width="149.324759" height="178.915663" fill="white">
            <use xlink:href="#path-18"></use>
        </mask>
        <polygon id="path-20" points="103.929742 200.873849 144.26977 200.372597 144.303472 207.393551 97.3321084 208.655729"></polygon>
        <mask id="mask-21" maskContentUnits="userSpaceOnUse" maskUnits="objectBoundingBox" x="0" y="0" width="46.971364" height="8.28313253" fill="white">
            <use xlink:href="#path-20"></use>
        </mask>
        <polygon id="path-22" points="59.1323142 199.217223 99.4723419 198.71597 99.5060448 205.736924 52.5346808 206.999103"></polygon>
        <mask id="mask-23" maskContentUnits="userSpaceOnUse" maskUnits="objectBoundingBox" x="0" y="0" width="46.971364" height="8.28313253" fill="white">
            <use xlink:href="#path-22"></use>
        </mask>
        <polygon id="path-24" points="78.870671 132.441171 101.712945 131.939918 101.732029 138.960872 75.1348047 140.223051"></polygon>
        <mask id="mask-25" maskContentUnits="userSpaceOnUse" maskUnits="objectBoundingBox" x="0" y="0" width="26.5972245" height="8.28313253" fill="white">
            <use xlink:href="#path-24"></use>
        </mask>
        <polygon id="path-26" points="99.9291795 133.463154 122.771454 132.961902 122.790538 139.982856 96.1933131 141.245034"></polygon>
        <mask id="mask-27" maskContentUnits="userSpaceOnUse" maskUnits="objectBoundingBox" x="0" y="0" width="26.5972245" height="8.28313253" fill="white">
            <use xlink:href="#path-26"></use>
        </mask>
        <polygon id="path-28" points="104.636182 215.156122 142.213033 214.102306 142.244427 228.862921 98.4904677 231.516483"></polygon>
        <mask id="mask-29" maskContentUnits="userSpaceOnUse" maskUnits="objectBoundingBox" x="0" y="0" width="43.7539595" height="17.4141771" fill="white">
            <use xlink:href="#path-28"></use>
        </mask>
        <polygon id="path-30" points="101.68444 148.493932 122.089806 145.0044 119.551707 154.886873 97.8388957 155.938762"></polygon>
        <mask id="mask-31" maskContentUnits="userSpaceOnUse" maskUnits="objectBoundingBox" x="0" y="0" width="24.2509101" height="10.9343623" fill="white">
            <use xlink:href="#path-30"></use>
        </mask>
        <polygon id="path-32" points="79.6810806 145.743541 100.086447 142.254009 97.5483479 152.136482 75.8355366 153.188371"></polygon>
        <mask id="mask-33" maskContentUnits="userSpaceOnUse" maskUnits="objectBoundingBox" x="0" y="0" width="24.2509101" height="10.9343623" fill="white">
            <use xlink:href="#path-32"></use>
        </mask>
        <polygon id="path-34" points="102.251271 165.579365 128.590377 174.730842 128.612996 189.491457 93.4501402 176.038658"></polygon>
        <mask id="mask-35" maskContentUnits="userSpaceOnUse" maskUnits="objectBoundingBox" x="0" y="0" width="35.162856" height="23.9120926" fill="white">
            <use xlink:href="#path-34"></use>
        </mask>
        <polygon id="path-36" points="78.6375584 165.521525 104.976665 174.673002 104.999284 189.433618 69.836428 175.980819"></polygon>
        <mask id="mask-37" maskContentUnits="userSpaceOnUse" maskUnits="objectBoundingBox" x="0" y="0" width="35.162856" height="23.9120926" fill="white">
            <use xlink:href="#path-36"></use>
        </mask>
        <polygon id="path-38" points="59.1885001 215.169864 96.765351 214.116047 96.7967453 228.876663 53.0427859 231.530224"></polygon>
        <mask id="mask-39" maskContentUnits="userSpaceOnUse" maskUnits="objectBoundingBox" x="0" y="0" width="43.7539595" height="17.4141771" fill="white">
            <use xlink:href="#path-38"></use>
        </mask>
        <path d="M44.8928929,29.8192771 L51.4340836,29.8192771 L51.4340836,0 L0,0 L0,29.8192771 L34.8933736,29.8192771 L43.4559913,41.0675554 L44.8928929,29.8192771 Z" id="path-40"></path>
        <mask id="mask-41" maskContentUnits="userSpaceOnUse" maskUnits="objectBoundingBox" x="0" y="0" width="51.4340836" height="41.0675554" fill="white">
            <use xlink:href="#path-40"></use>
        </mask>
        <rect id="path-42" x="189.144695" y="190.512048" width="76.3215434" height="61.2951807" rx="4"></rect>
        <mask id="mask-43" maskContentUnits="userSpaceOnUse" maskUnits="objectBoundingBox" x="0" y="0" width="76.3215434" height="61.2951807" fill="white">
            <use xlink:href="#path-42"></use>
        </mask>
        <rect id="path-44" x="212.37299" y="67.9216867" width="73.0032154" height="49.6987952" rx="4"></rect>
        <mask id="mask-45" maskContentUnits="userSpaceOnUse" maskUnits="objectBoundingBox" x="0" y="0" width="73.0032154" height="49.6987952" fill="white">
            <use xlink:href="#path-44"></use>
        </mask>
        <rect id="path-46" x="7.89762058" y="12.3915663" width="2.25646302" height="7.88554217"></rect>
        <mask id="mask-47" maskContentUnits="userSpaceOnUse" maskUnits="objectBoundingBox" x="0" y="0" width="2.25646302" height="7.88554217" fill="white">
            <use xlink:href="#path-46"></use>
        </mask>
        <rect id="path-48" x="12.4105466" y="10.1385542" width="2.25646302" height="10.1385542"></rect>
        <mask id="mask-49" maskContentUnits="userSpaceOnUse" maskUnits="objectBoundingBox" x="0" y="0" width="2.25646302" height="10.1385542" fill="white">
            <use xlink:href="#path-48"></use>
        </mask>
        <rect id="path-50" x="16.9234727" y="7.88554217" width="2.25646302" height="12.3915663"></rect>
        <mask id="mask-51" maskContentUnits="userSpaceOnUse" maskUnits="objectBoundingBox" x="0" y="0" width="2.25646302" height="12.3915663" fill="white">
            <use xlink:href="#path-50"></use>
        </mask>
        <path d="M44.8928929,29.8192771 L51.4340836,29.8192771 L51.4340836,0 L0,0 L0,29.8192771 L34.8933736,29.8192771 L43.4559913,41.0675554 L44.8928929,29.8192771 Z" id="path-52"></path>
        <mask id="mask-53" maskContentUnits="userSpaceOnUse" maskUnits="objectBoundingBox" x="0" y="0" width="51.4340836" height="41.0675554" fill="white">
            <use xlink:href="#path-52"></use>
        </mask>
        <polygon id="path-54" points="17.4237181 34.7237016 67.3536317 30.1513818 60.8344284 67.0670764 5.64958377 69.2462086"></polygon>
        <mask id="mask-55" maskContentUnits="userSpaceOnUse" maskUnits="objectBoundingBox" x="0" y="0" width="61.7040479" height="39.0948268" fill="white">
            <use xlink:href="#path-54"></use>
        </mask>
        <rect id="path-56" x="29.8649518" y="0" width="4.97749196" height="29.8192771"></rect>
        <mask id="mask-57" maskContentUnits="userSpaceOnUse" maskUnits="objectBoundingBox" x="0" y="0" width="4.97749196" height="29.8192771" fill="white">
            <use xlink:href="#path-56"></use>
        </mask>
        <path d="M23.1703409,27.7032647 L42.026428,26.0017818 L38.4345141,40.8531048 C38.4345141,40.8531048 25.9554102,42.4024872 19.3665321,42.4968521 C19.282197,42.4980599 18.4148747,41.1398231 18.4148747,41.1398231 L23.1703409,27.7032647 Z" id="path-58"></path>
        <mask id="mask-59" maskContentUnits="userSpaceOnUse" maskUnits="objectBoundingBox" x="0" y="0" width="23.6115533" height="16.4950711" fill="white">
            <use xlink:href="#path-58"></use>
        </mask>
        <polygon id="path-60" points="48.1797475 37.2279082 52.6205371 42.1523618 52.2571138 71.4588302 44.3629303 65.1806492"></polygon>
        <mask id="mask-61" maskContentUnits="userSpaceOnUse" maskUnits="objectBoundingBox" x="0" y="0" width="8.25760688" height="34.230922" fill="white">
            <use xlink:href="#path-60"></use>
        </mask>
        <polygon id="path-62" points="13.8957022 38.6546956 33.2415485 38.3053063 35.8792174 42.5200032 16.5333711 42.8693925"></polygon>
        <mask id="mask-63" maskContentUnits="userSpaceOnUse" maskUnits="objectBoundingBox" x="0" y="0" width="21.9835152" height="4.56408613" fill="white">
            <use xlink:href="#path-62"></use>
        </mask>
        <polygon id="path-64" points="28.3684807 45.3332325 47.7651324 44.7651129 45.0873932 58.3245964 23.5789191 59.3765303"></polygon>
        <mask id="mask-65" maskContentUnits="userSpaceOnUse" maskUnits="objectBoundingBox" x="0" y="0" width="24.1862133" height="14.6114174" fill="white">
            <use xlink:href="#path-64"></use>
        </mask>
        <polygon id="path-66" points="39.5298225 35.013692 57.0915379 34.7172599 55.1226653 49.2391599 35.8216454 50.5990052"></polygon>
        <mask id="mask-67" maskContentUnits="userSpaceOnUse" maskUnits="objectBoundingBox" x="0" y="0" width="21.2698925" height="15.8817453" fill="white">
            <use xlink:href="#path-66"></use>
        </mask>
        <polygon id="path-68" points="19.655874 57.2094845 39.4828516 57.2094845 43.4666934 63.0691608 23.1727658 62.8290803"></polygon>
        <mask id="mask-69" maskContentUnits="userSpaceOnUse" maskUnits="objectBoundingBox" x="0" y="0" width="23.8108194" height="5.85967632" fill="white">
            <use xlink:href="#path-68"></use>
        </mask>
        <polygon id="path-70" points="40.5181365 64.5975872 48.081533 63.7855969 51.5984248 69.4051928 43.6419265 69.5890507"></polygon>
        <mask id="mask-71" maskContentUnits="userSpaceOnUse" maskUnits="objectBoundingBox" x="0" y="0" width="11.0802883" height="5.80345377" fill="white">
            <use xlink:href="#path-70"></use>
        </mask>
        <polygon id="path-72" points="53.7433592 41.5779951 61.1303113 39.4798919 59.125599 67.9675393 50.2747003 69.8900286"></polygon>
        <mask id="mask-73" maskContentUnits="userSpaceOnUse" maskUnits="objectBoundingBox" x="0" y="0" width="10.8556109" height="30.4101368" fill="white">
            <use xlink:href="#path-72"></use>
        </mask>
        <polygon id="path-74" points="57.1843528 42.8163895 60.514945 46.5097298 59.0413243 74.5850847 55.3829289 70.528239"></polygon>
        <mask id="mask-75" maskContentUnits="userSpaceOnUse" maskUnits="objectBoundingBox" x="0" y="0" width="5.13201607" height="31.7686952" fill="white">
            <use xlink:href="#path-74"></use>
        </mask>
        <filter x="-50%" y="-50%" width="200%" height="200%" filterUnits="objectBoundingBox" id="filter-76">
            <feGaussianBlur stdDeviation="10" in="SourceGraphic"></feGaussianBlur>
        </filter>
    </defs>
    <g id="Page-1" stroke="none" stroke-width="1" fill="none" fill-rule="evenodd">
        <g id="Screen-3" transform="translate(0.000000, -287.000000)">
            <g id="Group-3" transform="translate(0.000000, 287.000000)">
                <rect id="Background-Image" fill="#FFFFFF" x="0" y="0" width="1280" height="500"></rect>
                <path d="M645.7535,353.529138 L631.769655,353.529138 C612.01462,353.529138 596,337.521138 596,317.764569 C596,298.012343 612.014051,282 631.769655,282 L679.554773,282 C686.14687,277.078584 691,271.058495 691,264 C691,256.828546 685.990296,250.729 679.236966,245.764569 L569.769655,245.764569 C550.01462,245.764569 534,229.756569 534,210 C534,190.247774 550.014051,174.235431 569.769655,174.235431 L1283.23034,174.235431 C1302.98538,174.235431 1319,190.243431 1319,210 C1319,225.254094 1309.44915,238.277706 1296,243.418307 L1296,282 L1345.23034,282 C1364.98538,282 1381,298.008 1381,317.764569 C1381,337.516795 1364.98595,353.529138 1345.23034,353.529138 L1291.84014,353.529138 L1291.84014,389 L1321.23034,389 C1340.98538,389 1357,405.008 1357,424.764569 C1357,444.516795 1340.98595,460.529138 1321.23034,460.529138 L607.769655,460.529138 C588.01462,460.529138 572,444.521138 572,424.764569 C572,405.012343 588.014051,389 607.769655,389 L650.582037,389 C658.523582,386.968003 666,382.315661 666,372 C666,359.593204 655.185194,355.093926 645.7535,353.529138 Z" id="Combined-Shape" fill="url(#linearGradient-1)"></path>
                <g id="Group" transform="translate(1004.000000, 180.000000)" stroke="#397193" stroke-width="2">
                    <use id="Rectangle-39" mask="url(#mask-3)" xlink:href="#path-2"></use>
                </g>
                <g id="Group-25" transform="translate(669.000000, 152.000000)">
                    <g id="Group-23">
                        <use id="Rectangle-40" stroke="#397193" mask="url(#mask-5)" stroke-width="2" fill="#E4F3FB" xlink:href="#path-4"></use>
                        <use id="Rectangle-39" stroke="#397193" mask="url(#mask-7)" stroke-width="2" fill="#87B2CD" xlink:href="#path-6"></use>
                        <use id="Rectangle-39" stroke="#397193" mask="url(#mask-9)" stroke-width="2" fill="#E4F3FB" xlink:href="#path-8"></use>
                        <use id="Rectangle-39" stroke="#397193" mask="url(#mask-11)" stroke-width="2" fill="#E4F3FB" xlink:href="#path-10"></use>
                        <rect id="Rectangle-41" fill="#D4EAF8" x="336.810289" y="29.8192771" width="146.006431" height="29.8192771"></rect>
                        <path d="M308.604502,145.783133 L308.604502,110.993976 C308.604502,110.993976 305.286174,112.650602 303.62701,114.307229 C301.967846,115.963855 303.62701,127.560241 303.62701,127.560241 C303.62701,127.560241 301.577784,128.45657 300.308682,129.216867 C298.812511,130.113197 296.990354,132.53012 296.990354,132.53012 L287.03537,122.590361 C287.03537,122.590361 283.717042,122.590361 280.398714,125.903614 C277.080386,129.216867 277.080386,130.873494 277.080386,130.873494 L285.376206,142.46988 C285.376206,142.46988 284.568421,144.366337 283.717042,145.783133 C282.909257,147.127381 282.057878,150.753012 282.057878,150.753012 C282.057878,150.753012 268.784566,150.753012 267.125402,150.753012 C265.466238,150.753012 265.466238,156.281556 265.466238,157.379518 C265.466238,158.477481 267.125402,159.036145 267.125402,159.036145 L298.649518,159.036145 C298.649518,159.036145 298.649518,152.577785 301.800874,149.267393 C301.855576,149.20993 301.911228,149.152917 301.967846,149.096386 C305.286174,145.783133 308.604502,145.783133 308.604502,145.783133 Z" id="Path-23" stroke="#397193" fill="#D4EAF8"></path>
                        <use id="Rectangle-34" stroke="#397193" mask="url(#mask-13)" stroke-width="2" fill="#87B2CD" xlink:href="#path-12"></use>
                        <use id="Rectangle-34" stroke="#397193" mask="url(#mask-15)" stroke-width="2" fill="#D4EAF8" xlink:href="#path-14"></use>
                        <use id="Rectangle-39" stroke="#397193" mask="url(#mask-17)" stroke-width="2" fill="#FFFFFF" xlink:href="#path-16"></use>
                        <use id="Rectangle-39" stroke="#397193" mask="url(#mask-19)" stroke-width="2" fill="#FFFFFF" xlink:href="#path-18"></use>
                        <polygon id="Star" stroke="#397193" fill="#D4EAF8" points="323.536977 48.0421687 322.366699 42.4395141 318.559486 40.9059314 322.366699 38.7351847 323.536977 34.7891566 324.707256 38.7351847 328.514469 40.9059314 324.707256 42.4395141"></polygon>
                        <use id="Rectangle-33" stroke="#397193" mask="url(#mask-21)" stroke-width="2" fill="#C0D8E6" transform="translate(120.817790, 204.514163) scale(-1, 1) rotate(-26.000000) translate(-120.817790, -204.514163) " xlink:href="#path-20"></use>
                        <use id="Rectangle-33" stroke="#397193" mask="url(#mask-23)" stroke-width="2" fill="#C0D8E6" transform="translate(76.020363, 202.857537) rotate(-26.000000) translate(-76.020363, -202.857537) " xlink:href="#path-22"></use>
                        <use id="Rectangle-33" stroke="#397193" mask="url(#mask-25)" stroke-width="2" fill="#C0D8E6" transform="translate(88.433417, 136.081484) rotate(-26.000000) translate(-88.433417, -136.081484) " xlink:href="#path-24"></use>
                        <use id="Rectangle-33" stroke="#397193" mask="url(#mask-27)" stroke-width="2" fill="#C0D8E6" transform="translate(109.491925, 137.103468) scale(-1, 1) rotate(-26.000000) translate(-109.491925, -137.103468) " xlink:href="#path-26"></use>
                        <use id="Rectangle-33" stroke="#397193" mask="url(#mask-29)" stroke-width="2" fill="#C0D8E6" transform="translate(120.367447, 222.809394) rotate(-26.000000) translate(-120.367447, -222.809394) " xlink:href="#path-28"></use>
                        <use id="Rectangle-33" stroke="#397193" mask="url(#mask-31)" stroke-width="2" fill="#C0D8E6" transform="translate(109.964351, 150.471581) rotate(-26.000000) translate(-109.964351, -150.471581) " xlink:href="#path-30"></use>
                        <use id="Rectangle-33" stroke="#397193" mask="url(#mask-33)" stroke-width="2" fill="#C0D8E6" transform="translate(87.960992, 147.721190) scale(-1, 1) rotate(-26.000000) translate(-87.960992, -147.721190) " xlink:href="#path-32"></use>
                        <use id="Rectangle-33" stroke="#397193" mask="url(#mask-35)" stroke-width="2" fill="#C0D8E6" transform="translate(111.031568, 177.535411) rotate(-26.000000) translate(-111.031568, -177.535411) " xlink:href="#path-34"></use>
                        <use id="Rectangle-33" stroke="#397193" mask="url(#mask-37)" stroke-width="2" fill="#C0D8E6" transform="translate(87.417856, 177.477571) scale(-1, 1) rotate(-26.000000) translate(-87.417856, -177.477571) " xlink:href="#path-36"></use>
                        <use id="Rectangle-33" stroke="#397193" mask="url(#mask-39)" stroke-width="2" fill="#C0D8E6" transform="translate(74.919766, 222.823136) scale(-1, 1) rotate(-26.000000) translate(-74.919766, -222.823136) " xlink:href="#path-38"></use>
                        <polygon id="Triangle-2" stroke="#397193" fill="#D4EAF8" points="94.5723473 92.7710843 53.0932476 236.89759 46.4565916 231.927711"></polygon>
                        <polygon id="Triangle-2" stroke="#397193" fill="#D4EAF8" transform="translate(126.926045, 164.834337) scale(-1, 1) translate(-126.926045, -164.834337) " points="150.983923 92.7710843 109.504823 236.89759 102.868167 231.927711"></polygon>
                        <polygon id="Triangle-2" stroke="#397193" fill="#D4EAF8" transform="translate(103.697749, 179.743976) scale(-1, 1) translate(-103.697749, -179.743976) " points="107.845659 92.7710843 107.845659 266.716867 99.5498392 258.433735"></polygon>
                        <path d="M97.8906752,87.8012048 C97.8906752,87.8012048 99.3783558,86.4380037 99.5498392,89.4578313 C100.024987,97.8251987 99.5498392,118.280388 99.5498392,129.216867 L99.5498392,266.716867 L89.5948553,258.433735 L97.8906752,87.8012048 Z" id="Triangle-2" stroke="#397193" fill="#D4EAF8"></path>
                        <path d="M97.8906752,140.813253 C128.129597,140.813253 152.643087,116.337254 152.643087,86.1445783 C152.643087,55.951903 128.129597,31.4759036 97.8906752,31.4759036 C67.6517533,31.4759036 43.1382637,55.951903 43.1382637,86.1445783 C43.1382637,116.337254 67.6517533,140.813253 97.8906752,140.813253 Z M97.8906752,132.53012 C123.547942,132.53012 144.347267,111.762606 144.347267,86.1445783 C144.347267,60.5265508 123.547942,39.7590361 97.8906752,39.7590361 C72.2334082,39.7590361 51.4340836,60.5265508 51.4340836,86.1445783 C51.4340836,111.762606 72.2334082,132.53012 97.8906752,132.53012 Z" id="Combined-Shape" stroke="#397193" fill="#87B2CD"></path>
                        <path d="M98.7202572,125.903614 C121.170366,125.903614 139.369775,107.732039 139.369775,85.3162651 C139.369775,62.900491 121.170366,44.7289157 98.7202572,44.7289157 C76.2701485,44.7289157 58.0707395,62.900491 58.0707395,85.3162651 C58.0707395,107.732039 76.2701485,125.903614 98.7202572,125.903614 Z M98.7202572,119.754016 C117.768834,119.754016 133.210757,104.33571 133.210757,85.3162651 C133.210757,66.2968204 117.768834,50.8785141 98.7202572,50.8785141 C79.6716802,50.8785141 64.2297574,66.2968204 64.2297574,85.3162651 C64.2297574,104.33571 79.6716802,119.754016 98.7202572,119.754016 Z" id="Combined-Shape" stroke="#397193" fill="#87B2CD"></path>
                        <ellipse id="Oval-12" stroke="#397193" fill="#D4EAF8" cx="98.7202572" cy="82.003012" rx="10.7845659" ry="10.7680723"></ellipse>
                        <g id="Group-18" transform="translate(155.961415, 187.198795)" stroke="#397193" fill="#D8D8D8">
                            <ellipse id="Oval-10" cx="7.46623794" cy="0.828313253" rx="0.829581994" ry="0.828313253"></ellipse>
                            <ellipse id="Oval-10" cx="7.46623794" cy="14.0813253" rx="0.829581994" ry="0.828313253"></ellipse>
                            <ellipse id="Oval-10" cx="0.829581994" cy="7.45481928" rx="0.829581994" ry="0.828313253"></ellipse>
                            <ellipse id="Oval-10" cx="14.1028939" cy="7.45481928" rx="0.829581994" ry="0.828313253"></ellipse>
                            <ellipse id="Oval-10" cx="12.4437299" cy="2.48493976" rx="0.829581994" ry="0.828313253"></ellipse>
                            <ellipse id="Oval-10" cx="2.48874598" cy="2.48493976" rx="0.829581994" ry="0.828313253"></ellipse>
                            <ellipse id="Oval-10" cx="12.4437299" cy="12.4246988" rx="0.829581994" ry="0.828313253"></ellipse>
                            <ellipse id="Oval-10" cx="2.48874598" cy="12.4246988" rx="0.829581994" ry="0.828313253"></ellipse>
                        </g>
                        <g id="Group-18" transform="translate(288.694534, 26.506024)" stroke="#397193" fill="#397193">
                            <ellipse id="Oval-10" cx="4.14790997" cy="0.460174029" rx="0.460878885" ry="0.460174029"></ellipse>
                            <ellipse id="Oval-10" cx="4.14790997" cy="7.8229585" rx="0.460878885" ry="0.460174029"></ellipse>
                            <ellipse id="Oval-10" cx="0.460878885" cy="4.14156627" rx="0.460878885" ry="0.460174029"></ellipse>
                            <ellipse id="Oval-10" cx="7.83494105" cy="4.14156627" rx="0.460878885" ry="0.460174029"></ellipse>
                            <ellipse id="Oval-10" cx="6.91318328" cy="1.38052209" rx="0.460878885" ry="0.460174029"></ellipse>
                            <ellipse id="Oval-10" cx="1.38263666" cy="1.38052209" rx="0.460878885" ry="0.460174029"></ellipse>
                            <ellipse id="Oval-10" cx="6.91318328" cy="6.90261044" rx="0.460878885" ry="0.460174029"></ellipse>
                            <ellipse id="Oval-10" cx="1.38263666" cy="6.90261044" rx="0.460878885" ry="0.460174029"></ellipse>
                        </g>
                        <ellipse id="Oval-9" stroke="#397193" cx="20.7395498" cy="77.0331325" rx="4.14790997" ry="4.14156627"></ellipse>
                        <ellipse id="Oval-9" stroke="#397193" cx="203.247588" cy="125.075301" rx="4.14790997" ry="4.14156627"></ellipse>
                        <path d="M180.848875,3.31325301 L195.78135,3.31325301" id="Path-15" stroke="#397193"></path>
                        <path d="M43.1382637,162.349398 L58.0707395,162.349398" id="Path-15" stroke="#397193"></path>
                        <g id="Group-16" transform="translate(237.260450, 41.415663)" stroke="#397193">
                            <path d="M0.829581994,9.11144578 L7.64836807,0.646461669" id="Path-15"></path>
                            <path d="M0.829581994,9.11144578 L7.64836807,0.646461669" id="Path-15" transform="translate(4.147910, 4.969880) scale(-1, 1) translate(-4.147910, -4.969880) "></path>
                        </g>
                        <g id="Group-16" transform="translate(34.842444, 115.963855)" stroke="#397193">
                            <path d="M0.829581994,9.11144578 L7.64836807,0.646461669" id="Path-15"></path>
                            <path d="M0.829581994,9.11144578 L7.64836807,0.646461669" id="Path-15" transform="translate(4.147910, 4.969880) scale(-1, 1) translate(-4.147910, -4.969880) "></path>
                        </g>
                        <g id="Group-16" transform="translate(66.366559, 246.837349)" stroke="#397193">
                            <path d="M0.829581994,9.11144578 L7.64836807,0.646461669" id="Path-15"></path>
                            <path d="M0.829581994,9.11144578 L7.64836807,0.646461669" id="Path-15" transform="translate(4.147910, 4.969880) scale(-1, 1) translate(-4.147910, -4.969880) "></path>
                        </g>
                        <g id="Group-16" transform="translate(109.504823, 0.000000)" stroke="#397193">
                            <path d="M0.829581994,9.11144578 L7.64836807,0.646461669" id="Path-15"></path>
                            <path d="M0.829581994,9.11144578 L7.64836807,0.646461669" id="Path-15" transform="translate(4.147910, 4.969880) scale(-1, 1) translate(-4.147910, -4.969880) "></path>
                        </g>
                        <path d="M205.736334,4.96987952 L239.749196,4.96987952" id="Path-15" stroke="#397193"></path>
                        <path d="M0,164.006024 L34.0128617,164.006024" id="Path-15" stroke="#397193"></path>
                        <path d="M143.517685,13.253012 L214.861736,13.253012" id="Path-15" stroke="#397193"></path>
                        <path d="M25.7170418,172.289157 L62.2186495,172.289157" id="Path-15" stroke="#397193"></path>
                        <path d="M170.893891,51.3554217 L170.893891,61.2951807" id="Path-16" stroke="#979797"></path>
                        <g id="Group-17" transform="translate(165.916399, 51.355422)" stroke="#397193">
                            <path d="M4.97749196,0 L4.97749196,9.93975904" id="Path-16"></path>
                            <path d="M0,4.96987952 L9.95498392,4.96987952" id="Path-17"></path>
                        </g>
                        <g id="Group-17" transform="translate(172.553055, 142.469880)" stroke="#397193">
                            <path d="M3.31832797,0 L3.31832797,6.62650602" id="Path-16"></path>
                            <path d="M0,3.31325301 L6.63665595,3.31325301" id="Path-17"></path>
                        </g>
                        <g id="Group-17" transform="translate(0.000000, 178.915663)" stroke="#397193">
                            <path d="M3.31832797,0 L3.31832797,6.62650602" id="Path-16"></path>
                            <path d="M0,3.31325301 L6.63665595,3.31325301" id="Path-17"></path>
                        </g>
                        <g id="Group-19" transform="translate(6.636656, 217.018072)" stroke="#397193">
                            <path d="M13.2733119,1.65662651 L16.5916399,1.65662651" id="Path-18"></path>
                            <path d="M19.9099678,1.65662651 L23.2282958,1.65662651" id="Path-18"></path>
                            <path d="M26.5466238,1.65662651 L29.8649518,1.65662651" id="Path-18"></path>
                            <path d="M33.1832797,1.65662651 L36.5016077,1.65662651" id="Path-18"></path>
                            <path d="M6.63665595,1.65662651 L9.95498392,1.65662651" id="Path-18"></path>
                            <path d="M0,1.65662651 L3.31832797,1.65662651" id="Path-18"></path>
                        </g>
                        <g id="Group-19" transform="translate(207.395498, 134.186747)" stroke="#397193">
                            <path d="M11.4633148,1.65662651 L14.3291435,1.65662651" id="Path-18"></path>
                            <path d="M17.1949722,1.65662651 L20.0608009,1.65662651" id="Path-18"></path>
                            <path d="M22.9266296,1.65662651 L25.7924583,1.65662651" id="Path-18"></path>
                            <path d="M28.6582871,1.65662651 L31.5241158,1.65662651" id="Path-18"></path>
                            <path d="M5.73165741,1.65662651 L8.59748612,1.65662651" id="Path-18"></path>
                            <path d="M0,1.65662651 L2.86582871,1.65662651" id="Path-18"></path>
                        </g>
                        <g id="Group-20" transform="translate(185.826367, 142.469880)"></g>
                        <g id="Group-19" transform="translate(185.826367, 142.469880)" stroke="#397193">
                            <use id="Combined-Shape" mask="url(#mask-41)" stroke-width="2" fill="#67ABD5" xlink:href="#path-40"></use>
                            <path d="M9.95498392,8.28313253 L41.4790997,8.28313253" id="Path-19"></path>
                            <path d="M9.95498392,13.253012 L41.4790997,13.253012" id="Path-19"></path>
                            <path d="M9.95498392,19.8795181 L26.5466238,19.8795181" id="Path-19"></path>
                        </g>
                        <path d="M253.701257,135.843373 L256.567086,135.843373" id="Path-18" stroke="#397193"></path>
                        <path d="M259.432914,135.843373 L262.298743,135.843373" id="Path-18" stroke="#397193"></path>
                        <path d="M247.9696,135.843373 L250.835428,135.843373" id="Path-18" stroke="#397193"></path>
                        <path d="M242.237942,135.843373 L245.103771,135.843373" id="Path-18" stroke="#397193"></path>
                        <use id="Rectangle-36" stroke="#397193" mask="url(#mask-43)" stroke-width="2" fill="#FFFFFF" xlink:href="#path-42"></use>
                        <path d="M190.803859,208.73494 L263.807074,208.73494" id="Path-20" stroke="#397193"></path>
                        <use id="Rectangle-36" stroke="#397193" mask="url(#mask-45)" stroke-width="2" fill="#C0D8E6" xlink:href="#path-44"></use>
                        <path d="M214.032154,82.003012 L283.861317,82.003012" id="Path-20" stroke="#397193"></path>
                        <g id="Group-21" transform="translate(225.646302, 217.018072)">
                            <path d="M27.1849836,19.3511293 C27.8433337,17.7233584 28.2057878,15.944605 28.2057878,14.0813253 C28.2057878,6.30442408 21.8917071,0 14.1028939,0 C10.7584001,0 7.68582032,1.16242146 5.26830032,3.10470447 L8.02965827,5.26211374 C9.75594338,4.07470103 11.8481099,3.37951807 14.1028939,3.37951807 C20.0223919,3.37951807 24.8210932,8.17088037 24.8210932,14.0813253 C24.8210932,15.1493027 24.6644154,16.1807419 24.3727582,17.153978 L27.1849836,19.3511293 Z M22.2997833,25.5412891 C19.9897232,27.1914824 17.1598965,28.1626506 14.1028939,28.1626506 C6.31408067,28.1626506 0,21.8582265 0,14.0813253 C0,12.5044169 0.259603109,10.9880493 0.738464625,9.5725056 L3.62308492,11.826218 C3.46690717,12.5532581 3.38469453,13.3077055 3.38469453,14.0813253 C3.38469453,19.9917702 8.18339584,24.7831325 14.1028939,24.7831325 C16.0634215,24.7831325 17.9010063,24.257557 19.4820305,23.3398194 L22.2997833,25.5412891 Z" id="Combined-Shape" stroke="#397193" fill="#B7D5E1"></path>
                            <use id="Rectangle-37" stroke="#67ABD5" mask="url(#mask-47)" stroke-width="2" fill="#67ABD5" xlink:href="#path-46"></use>
                            <use id="Rectangle-37" stroke="#67ABD5" mask="url(#mask-49)" stroke-width="2" fill="#67ABD5" xlink:href="#path-48"></use>
                            <use id="Rectangle-37" stroke="#67ABD5" mask="url(#mask-51)" stroke-width="2" fill="#67ABD5" xlink:href="#path-50"></use>
                        </g>
                        <g id="Group-22" transform="translate(232.282958, 86.144578)" stroke="#397193">
                            <path d="M18.2508039,3.31325301 L36.5016077,3.31325301" id="Path-21"></path>
                            <path d="M41.4790997,1.65662651 L41.4790997,19.8795181" id="Path-21"></path>
                            <path d="M11.6141479,8.28313253 L36.5016077,8.28313253" id="Path-21"></path>
                            <path d="M6.63665595,13.253012 L36.5016077,13.253012" id="Path-21"></path>
                            <path d="M0,18.2228916 L36.5016077,18.2228916" id="Path-21"></path>
                            <path d="M38.1607717,4.96987952 L42.3086817,0.828313253" id="Path-22"></path>
                            <path d="M41.4790997,4.96987952 L44.7974277,1.65662651" id="Path-22" transform="translate(43.138264, 3.313253) scale(-1, 1) translate(-43.138264, -3.313253) "></path>
                        </g>
                        <rect id="Rectangle-42" fill="#87B2CD" x="348.424437" y="71.2349398" width="122.778135" height="62.9518072"></rect>
                        <path d="M337,30 C337.204032,29.8979841 335.143836,29.0979141 338,29 C361.375058,28.1986636 466.327689,29.0009751 481,29 C482.108508,28.9999263 484,31.0757187 484,32 L484,60 L336,60 C336,60 335,31 337,30 Z" id="Rectangle-42" fill="#C0D8E6"></path>
                        <path d="M335.151125,59.6385542 L484.475884,59.6385542" id="Path-24" stroke="#397193"></path>
                        <rect id="Rectangle-42" fill="#87B2CD" x="351.742765" y="147.439759" width="86.2765273" height="13.253012"></rect>
                        <rect id="Rectangle-42" fill="#AAD2E2" x="351.742765" y="165.662651" width="109.504823" height="13.253012"></rect>
                        <rect id="Rectangle-42" fill="#C0D8E6" x="351.742765" y="183.885542" width="58.0707395" height="13.253012"></rect>
                        <g id="Group-19" transform="translate(471.749196, 100.518072) scale(-1, 1) translate(-471.749196, -100.518072) translate(445.749196, 79.518072)" stroke="#397193">
                            <use id="Combined-Shape" mask="url(#mask-53)" stroke-width="2" fill="#67ABD5" xlink:href="#path-52"></use>
                            <path d="M9.95498392,8.28313253 L41.4790997,8.28313253" id="Path-19"></path>
                            <path d="M9.95498392,13.253012 L41.4790997,13.253012" id="Path-19"></path>
                            <path d="M24.8874598,18.2228916 L41.4790997,18.2228916" id="Path-19"></path>
                        </g>
                    </g>
                    <g id="Group-24" transform="translate(144.347267, 190.512048)" stroke="#397193" stroke-width="2" fill="#D4EAF8">
                        <use id="Rectangle-43" mask="url(#mask-55)" transform="translate(36.501608, 49.698795) rotate(35.000000) translate(-36.501608, -49.698795) " xlink:href="#path-54"></use>
                        <use id="Rectangle-45" mask="url(#mask-57)" xlink:href="#path-56"></use>
                        <use id="Rectangle-43" mask="url(#mask-59)" transform="translate(30.220651, 34.249317) rotate(35.000000) translate(-30.220651, -34.249317) " xlink:href="#path-58"></use>
                        <use id="Rectangle-43" mask="url(#mask-61)" transform="translate(48.491734, 54.343369) rotate(42.000000) translate(-48.491734, -54.343369) " xlink:href="#path-60"></use>
                        <use id="Rectangle-44" mask="url(#mask-63)" transform="translate(24.887460, 40.587349) rotate(32.000000) translate(-24.887460, -40.587349) " xlink:href="#path-62"></use>
                        <use id="Rectangle-43" mask="url(#mask-65)" transform="translate(35.672026, 52.070822) rotate(35.000000) translate(-35.672026, -52.070822) " xlink:href="#path-64"></use>
                        <use id="Rectangle-43" mask="url(#mask-67)" transform="translate(46.456592, 42.658133) rotate(35.000000) translate(-46.456592, -42.658133) " xlink:href="#path-66"></use>
                        <use id="Rectangle-44" mask="url(#mask-69)" transform="translate(31.561284, 60.139323) rotate(32.000000) translate(-31.561284, -60.139323) " xlink:href="#path-68"></use>
                        <use id="Rectangle-44" mask="url(#mask-71)" transform="translate(46.058281, 66.687324) rotate(32.000000) translate(-46.058281, -66.687324) " xlink:href="#path-70"></use>
                        <use id="Rectangle-43" mask="url(#mask-73)" transform="translate(55.702506, 54.684960) rotate(42.000000) translate(-55.702506, -54.684960) " xlink:href="#path-72"></use>
                        <use id="Rectangle-43" mask="url(#mask-75)" transform="translate(57.948937, 58.700737) rotate(42.000000) translate(-57.948937, -58.700737) " xlink:href="#path-74"></use>
                    </g>
                    <g id="Group-10" transform="translate(174.866550, 177.222054) rotate(-11.000000) translate(-174.866550, -177.222054) translate(159.866550, 169.722054)" stroke="#397193">
                        <path d="M4.59020341,11.5334861 C5.78529881,9.07776598 8.62004598,5.38590106 14.8624876,5.38590106 C21.0769159,5.38590106 24.3162334,9.0447053 25.7905034,11.5003511" id="Path-11"></path>
                        <path d="M6.21724894e-13,8.28808659 C6.21724894e-13,8.28808659 2.20912028,-7.95462803e-13 14.3417569,-7.95807864e-13 C26.4743936,-7.95807864e-13 29.8649518,8.28808659 29.8649518,8.28808659" id="Path-11"></path>
                        <path d="M10.2159859,14.0923178 C10.9540508,12.7393636 12.4700062,10.9734327 15.3551259,10.9734327 C18.4012413,10.9734327 19.9211244,12.9419478 20.6106585,14.3145744" id="Path-11"></path>
                    </g>
                </g>
                <rect id="Rectangle-2" fill="#FFFFFF" filter="url(#filter-76)" x="565" y="404" width="785" height="96"></rect>
            </g>
        </g>
    </g>
</svg>