<?xml version="1.0" encoding="utf-8"?>
<!-- Generator: Adobe Illustrator 21.1.0, SVG Export Plug-In . SVG Version: 6.00 Build 0)  -->
<svg version="1.1"
	 id="svg3754" inkscape:version="0.92.1 r" sodipodi:docname="WiseLab-logo_v2.svg" xmlns:cc="http://creativecommons.org/ns#" xmlns:dc="http://purl.org/dc/elements/1.1/" xmlns:inkscape="http://www.inkscape.org/namespaces/inkscape" xmlns:rdf="http://www.w3.org/1999/02/22-rdf-syntax-ns#" xmlns:sodipodi="http://sodipodi.sourceforge.net/DTD/sodipodi-0.dtd" xmlns:svg="http://www.w3.org/2000/svg"
	 xmlns="http://www.w3.org/2000/svg" xmlns:xlink="http://www.w3.org/1999/xlink" x="0px" y="0px" viewBox="0 0 351.5 85.9"
	 style="enable-background:new 0 0 351.5 85.9;" xml:space="preserve">
<style type="text/css">
	.st0{fill:#393838;}
	.st1{font-family:'AvenirNext-Regular';}
	.st2{font-size:50.5493px;}
	.st3{letter-spacing:-1;}
	.st4{font-size:18px;}
</style>
<sodipodi:namedview  bordercolor="#666666" borderopacity="1" gridtolerance="10" guidetolerance="10" id="namedview3756" inkscape:current-layer="svg3754" inkscape:cx="170.99406" inkscape:cy="29.220052" inkscape:pageopacity="0" inkscape:pageshadow="2" inkscape:window-height="1396" inkscape:window-maximized="0" inkscape:window-width="2449" inkscape:window-x="1680" inkscape:window-y="22" inkscape:zoom="2.4972942" objecttolerance="10" pagecolor="#ffffff" showgrid="false">
	</sodipodi:namedview>
<title  id="title3739">LOGO 1</title>
<desc  id="desc3741">Created with Sketch.</desc>
<g id="LOGO-1">
	<text transform="matrix(1 0 0 1 2.5288 51.958)" class="st0 st1 st2 st3">WiSE Lab</text>
	<g id="Group" transform="translate(113,146)">
		<path id="Path-16" inkscape:connector-curvature="0" class="st0" d="M-63.3-140.4c-0.2,0.4-0.4,2.1,0.8,2.3
			c1.4,0.2,6.1-2.7,11-0.9c4.9,1.8,7.1,6.9,8,7.4c0.9,0.5,2.5-0.4,2.3-1.4c-0.2-1-2-6.6-9.1-9.1C-57.3-144.7-63.1-140.8-63.3-140.4z
			"/>
		<path id="path3749" inkscape:connector-curvature="0" class="st0" d="M-61.1-135.7c-0.1,0.2-0.5,0.7-0.3,1.4
			c0.2,0.5,0.7,1.2,1.1,1.3c1,0.1,3.1-2.3,7-0.7s4,4.4,4.6,4.7s2.4-0.7,2.2-1.4c-0.1-0.7-1.1-4.5-6.1-6.3S-61-136-61.1-135.7z"/>
	</g>
</g>
<text transform="matrix(1 0 0 1 3.8701 76.9993)" class="st1 st4">Wireless Sensing and Embedded Systems</text>
</svg>
