<?xml version="1.0" encoding="UTF-8" standalone="no"?>
<svg
   xmlns:dc="http://purl.org/dc/elements/1.1/"
   xmlns:cc="http://creativecommons.org/ns#"
   xmlns:rdf="http://www.w3.org/1999/02/22-rdf-syntax-ns#"
   xmlns:svg="http://www.w3.org/2000/svg"
   xmlns="http://www.w3.org/2000/svg"
   xmlns:sodipodi="http://sodipodi.sourceforge.net/DTD/sodipodi-0.dtd"
   xmlns:inkscape="http://www.inkscape.org/namespaces/inkscape"
   width="351.53448"
   height="85.925613"
   viewBox="0 0 351.53448 85.925613"
   version="1.1"
   id="svg3754"
   sodipodi:docname="WiseLab-logo_v2.svg"
   inkscape:version="0.92.1 r">
  <metadata
     id="metadata3758">
    <rdf:RDF>
      <cc:Work
         rdf:about="">
        <dc:format>image/svg+xml</dc:format>
        <dc:type
           rdf:resource="http://purl.org/dc/dcmitype/StillImage" />
        <dc:title>LOGO 1</dc:title>
      </cc:Work>
    </rdf:RDF>
  </metadata>
  <sodipodi:namedview
     pagecolor="#ffffff"
     bordercolor="#666666"
     borderopacity="1"
     objecttolerance="10"
     gridtolerance="10"
     guidetolerance="10"
     inkscape:pageopacity="0"
     inkscape:pageshadow="2"
     inkscape:window-width="2449"
     inkscape:window-height="1396"
     id="namedview3756"
     showgrid="false"
     inkscape:zoom="2.4972942"
     inkscape:cx="170.99406"
     inkscape:cy="29.220052"
     inkscape:window-x="1680"
     inkscape:window-y="22"
     inkscape:window-maximized="0"
     inkscape:current-layer="svg3754" />
  <!-- Generator: Sketch 40 (33762) - http://www.bohemiancoding.com/sketch -->
  <title
     id="title3739">LOGO 1</title>
  <desc
     id="desc3741">Created with Sketch.</desc>
  <defs
     id="defs3743" />
  <g
     id="Page-1"
     style="fill:none;fill-rule:evenodd;stroke:none;stroke-width:1"
     transform="translate(-28.354932,-146.26638)">
    <g
       id="LOGO-1"
       style="fill:#393838">
      <text
         id="WiSE-Lab"
         font-size="88"
         font-weight="normal"
         letter-spacing="-2.93333316"
         style="font-weight:normal;font-size:88px;font-family:NanumGothic, 'Nanum Gothic';letter-spacing:-2.93333316">
        <tspan
           x="26.225332"
           y="227"
           id="tspan3745">WiSE Lab</tspan>
      </text>
      <g
         id="Group"
         transform="translate(113,146)">
        <path
           d="M 0.4326007,3.9619253 C 0.14131885,4.5747101 -0.10459381,6.9799936 1.6207496,7.1964866 3.6776409,7.4545817 10.343234,3.3301154 17.282594,5.9065426 24.221954,8.4829698 27.458793,15.695288 28.701479,16.470204 29.944164,17.24512 32.194594,15.919559 31.976532,14.53588 31.75847,13.152201 29.185452,5.1458311 19.046758,1.5049482 8.9080644,-2.1359346 0.72388256,3.3491405 0.4326007,3.9619253 Z"
           id="Path-16"
           inkscape:connector-curvature="0" />
        <path
           d="m 3.5252589,10.613102 c -0.1101875,0.231807 -0.7771998,1.054518 -0.4919278,1.970382 0.2352483,0.755264 1.042683,1.73532 1.5809054,1.802855 1.4197392,0.178146 4.351343,-3.220481 9.9974615,-1.051485 5.646118,2.168997 5.744028,6.22434 6.601774,6.759215 0.857745,0.534874 3.352662,-1.057843 3.202148,-2.012908 C 24.265106,17.126097 22.779572,11.68031 15.781486,9.1672431 8.7834004,6.6541768 3.7263119,10.190136 3.5252589,10.613102 Z"
           id="path3749"
           inkscape:connector-curvature="0" />
      </g>
    </g>
  </g>
</svg>
