<?xml version="1.0" encoding="utf-8"?>
<!-- Generator: Adobe Illustrator 21.1.0, SVG Export Plug-In . SVG Version: 6.00 Build 0)  -->
<svg version="1.1"
	 id="svg3754" inkscape:version="0.92.1 r" sodipodi:docname="WiseLab-logo_v2.svg" xmlns:cc="http://creativecommons.org/ns#" xmlns:dc="http://purl.org/dc/elements/1.1/" xmlns:inkscape="http://www.inkscape.org/namespaces/inkscape" xmlns:rdf="http://www.w3.org/1999/02/22-rdf-syntax-ns#" xmlns:sodipodi="http://sodipodi.sourceforge.net/DTD/sodipodi-0.dtd" xmlns:svg="http://www.w3.org/2000/svg"
	 xmlns="http://www.w3.org/2000/svg" xmlns:xlink="http://www.w3.org/1999/xlink" x="0px" y="0px" viewBox="0 0 343.7 68"
	 style="enable-background:new 0 0 343.7 68;" xml:space="preserve">
<style type="text/css">
	.st0{fill:#393838;}
	.st1{font-family:'NanumMyeongjo';}
	.st2{font-size:46.3436px;}
	.st3{letter-spacing:-1;}
	.st4{font-family:'Helvetica';}
	.st5{font-size:18px;}
</style>
<sodipodi:namedview  bordercolor="#666666" borderopacity="1" gridtolerance="10" guidetolerance="10" id="namedview3756" inkscape:current-layer="svg3754" inkscape:cx="170.99406" inkscape:cy="29.220052" inkscape:pageopacity="0" inkscape:pageshadow="2" inkscape:window-height="1396" inkscape:window-maximized="0" inkscape:window-width="2449" inkscape:window-x="1680" inkscape:window-y="22" inkscape:zoom="2.4972942" objecttolerance="10" pagecolor="#ffffff" showgrid="false">
	</sodipodi:namedview>
<title  id="title3739">LOGO 1</title>
<desc  id="desc3741">Created with Sketch.</desc>
<g id="Page-1" transform="translate(-28.354932,-146.26638)">
	<g id="LOGO-1">
		<text transform="matrix(1 0 0 1 26.225 188.783)" class="st0 st1 st2 st3">WiSE Lab</text>
		<g id="Group" transform="translate(113,146)">
			<path id="Path-16" inkscape:connector-curvature="0" class="st0" d="M-40.8,2.2c-0.2,0.3-0.3,1.6,0.6,1.7c1.1,0.1,4.6-2,8.2-0.7
				s5.4,5.2,6,5.6s1.8-0.3,1.7-1c-0.1-0.7-1.5-4.9-6.8-6.9S-40.7,1.9-40.8,2.2z"/>
			<path id="path3749" inkscape:connector-curvature="0" class="st0" d="M-39.2,5.7c-0.1,0.1-0.4,0.6-0.3,1c0.1,0.4,0.5,0.9,0.8,0.9
				c0.7,0.1,2.3-1.7,5.3-0.6c3,1.1,3,3.3,3.5,3.6c0.5,0.3,1.8-0.6,1.7-1.1s-0.9-3.4-4.5-4.7S-39.1,5.5-39.2,5.7z"/>
		</g>
	</g>
</g>
<text transform="matrix(1 0 0 1 2 63.3333)" class="st4 st5">Wireless Sensing and Embedded Systems </text>
</svg>
